<svg id="Layer_1" data-name="Layer 1" xmlns="http://www.w3.org/2000/svg" viewBox="0 0 64 79.29"><defs><style>.cls-1{fill:#fff;}</style></defs><polygon class="cls-1" points="47.45 67.13 63.89 62.73 61.82 55 32 62.99 2.18 55 0.11 62.73 16.55 67.13 0 71.56 2.07 79.29 32 71.27 61.93 79.29 64 71.56 47.45 67.13"/><path class="cls-1" d="M50.06,67.71a20,20,0,0,0,13.8-5.54c7.07-6.75,8.2-19.16,6.35-28.28A37.08,37.08,0,0,0,60,15.24a31.1,31.1,0,0,0-7-5.53A48.25,48.25,0,0,1,46.19,22c-2.69,3.42-5.58,6.7-8.58,9.87-4.32,4.57-7.55,9.33-7.55,15.89A20,20,0,0,0,50.06,67.71ZM42.21,49.2a20.4,20.4,0,0,1,3.29-3.72c1.52-1.58,3-3.2,4.37-4.9A16.3,16.3,0,0,0,53,35.71s7,10.16,6,18.72a8.71,8.71,0,0,1-.45,2.18l0,.11A9,9,0,1,1,42.21,49.2Z" transform="translate(-18 -9.71)"/></svg>