<svg id="Layer_1" data-name="Layer 1" xmlns="http://www.w3.org/2000/svg" viewBox="0 0 410 460"><defs><style>.cls-1{fill:#fff;}</style></defs><path class="cls-1" d="M137.67,486h0c-15.89,0-30.28-9.88-36.66-25.17-8.81-21.13.34-45.94,20.39-55.31l37-17.31a5,5,0,0,1,4-.1L254.77,426a5,5,0,0,1,.22,9.16L153.9,482.36A38,38,0,0,1,137.67,486Zm23-87.8-35.07,16.38c-15.26,7.13-22.16,26.15-15.39,42.4,4.82,11.55,15.59,19,27.43,19h0a28.17,28.17,0,0,0,12-2.7l90.75-42.4Z" transform="translate(-51 -26)"/><path class="cls-1" d="M343.44,393.28a5,5,0,0,1-1.9-.37l-92.31-37.86a5,5,0,0,1-.22-9.16L350.1,298.65A38.13,38.13,0,0,1,366.34,295c15.88,0,30.27,9.88,36.65,25.17,8.81,21.13-.33,45.94-20.39,55.31l-37.05,17.31A5,5,0,0,1,343.44,393.28Zm-79.86-43.16,79.72,32.7,35.07-16.38c15.26-7.13,22.16-26.15,15.39-42.4-4.82-11.55-15.59-19-27.43-19a28.3,28.3,0,0,0-12,2.69Z" transform="translate(-51 -26)"/><path class="cls-1" d="M368.55,480.37h0A38.23,38.23,0,0,1,354,477.49L120.9,381.87c-20.45-8.38-30.67-32.73-22.79-54.27,5.9-16.12,20.91-27,37.34-27A38.05,38.05,0,0,1,150,303.54L383.1,399.15c20.45,8.38,30.67,32.73,22.79,54.27C400,469.54,385,480.37,368.55,480.37ZM135.45,310.65c-12.44,0-23.41,8-27.95,20.39-6.06,16.55,1.65,35.21,17.19,41.58l233.12,95.61a28.15,28.15,0,0,0,10.74,2.14c12.44,0,23.41-8,27.94-20.39,6.07-16.55-1.65-35.21-17.19-41.58L146.19,312.79A28.15,28.15,0,0,0,135.45,310.65Z" transform="translate(-51 -26)"/><path class="cls-1" d="M301,296a5,5,0,0,1-4.26-7.61C309.82,267,313.46,241,307,215.15c-6.7-26.73-23.39-50.65-46.4-66.92.07,17.89-6.68,46.41-27.67,66a5,5,0,0,1-8.29-4.79,40.22,40.22,0,0,0-1.88-25A123,123,0,0,1,203.33,218c-14.28,17.53-25.47,36.12-5.77,70.54a5,5,0,0,1-6.47,7c-64.92-30.71-86.9-61.54-75.85-106.43,3.47-14.11,11.05-26.85,18.38-39.16,8.69-14.6,16.89-28.38,18.06-43.46a5,5,0,0,1,9.17-2.35c8.22,12.57,11,22.47,12.39,34.39,38.37-41.55,55.18-77.4,50-106.63a5,5,0,0,1,6.2-5.72c.66.18,16.57,4.48,35.64,18.88,16.36,12.35,38.09,34.68,51.69,72.11,7-10.55,4.43-26.28-.43-35.23a5,5,0,0,1,7-6.65c7.49,4.58,25.11,19.7,40.52,40.75,13.48,18.4,29.19,46.91,27.53,78.22-2.15,40.42-31.83,74.49-88.23,101.27A5,5,0,0,1,301,296ZM158.85,121.44c-3.68,11.83-10.23,22.85-16.64,33.6-7,11.69-14.15,23.78-17.26,36.44-7.62,31-.41,58.17,57.31,88.48-12.8-31.83-.09-51.85,13.32-68.31,16.42-20.15,20.79-40.09,20.83-40.29A5,5,0,0,1,225,169a47.26,47.26,0,0,1,10.67,26.83c14-20.07,16.93-45.32,14.05-56.19a5,5,0,0,1,7.36-5.59c29.74,17.44,51.47,46.11,59.62,78.65,5.78,23.07,4.21,46.31-4.32,66.91,44.05-23.84,67.25-52.7,69-85.92,1.51-28.37-13.09-54.69-25.6-71.78a194.61,194.61,0,0,0-25.31-28.25c1.95,13-.7,27.81-12.83,36.86a5,5,0,0,1-7.76-2.51c-12.4-39.46-34.28-62.4-50.45-74.71A118.14,118.14,0,0,0,234,38.45c1.8,32.74-18.75,71.39-61.2,115a5,5,0,0,1-8.57-3.13C163.46,139.13,162.65,130.62,158.85,121.44Z" transform="translate(-51 -26)"/><path class="cls-1" d="M76,116a25,25,0,1,1,25-25A25,25,0,0,1,76,116Zm0-40A15,15,0,1,0,91,91,15,15,0,0,0,76,76Z" transform="translate(-51 -26)"/><path class="cls-1" d="M436,166a25,25,0,1,1,25-25A25,25,0,0,1,436,166Zm0-40a15,15,0,1,0,15,15A15,15,0,0,0,436,126Z" transform="translate(-51 -26)"/><path class="cls-1" d="M346.31,46h-.62a5,5,0,0,1,0-10h.62a5,5,0,0,1,0,10Z" transform="translate(-51 -26)"/><path class="cls-1" d="M66,236h-.62a5,5,0,1,1,0-10H66a5,5,0,0,1,0,10Z" transform="translate(-51 -26)"/><path class="cls-1" d="M436.62,266H436a5,5,0,0,1,0-10h.62a5,5,0,0,1,0,10Z" transform="translate(-51 -26)"/><path class="cls-1" d="M226.62,276H226a5,5,0,0,1,0-10h.62a5,5,0,0,1,0,10Z" transform="translate(-51 -26)"/><path class="cls-1" d="M276,236h-.62a5,5,0,0,1,0-10H276a5,5,0,0,1,0,10Z" transform="translate(-51 -26)"/></svg>