<svg xmlns="http://www.w3.org/2000/svg" viewBox="0 0 95.1 79.78"><defs><style>.cls-1{fill:#fff;}</style></defs><g id="Layer_1" data-name="Layer 1"><circle class="cls-1" cx="41.34" cy="10.3" r="10.3"/><path class="cls-1" d="M18.3,76.1c1,0,1,0,2.5-.9a22.77,22.77,0,0,1,13.3-4.1,22.77,22.77,0,0,1,13.3,4.1c1.5,1,1.5,1,2.5,1s1,0,2.5-.9a23.62,23.62,0,0,1,26.6,0c1.5,1,1.5,1,2.5,1s1,0,2.5-.9a24,24,0,0,1,10-3.9,16.26,16.26,0,0,0,3.3-9.1A16.92,16.92,0,0,0,83.5,45a1.39,1.39,0,0,0-1.6,1.6,8.93,8.93,0,0,1,.1,4,8.72,8.72,0,0,1-8.7,6.6h-29L46.8,46l7.3,3.8a4.65,4.65,0,0,0,2.3.6,4.33,4.33,0,0,0,1.9-.4l11.5-4.6a5.27,5.27,0,0,0,3.3-6.2,5,5,0,0,0-6.7-3.3l-9.6,3.8-9.5-5.1a9.17,9.17,0,0,0-2.3-.9l-7-1.6a8.18,8.18,0,0,0-7.3,2,8.71,8.71,0,0,0-2.4,4.4L24.5,57H2.5V71a22.77,22.77,0,0,1,13.3,4.1C17.3,76.1,17.3,76.1,18.3,76.1Z" transform="translate(-2.4 -10.12)"/><path class="cls-1" d="M87.5,80.4a8.88,8.88,0,0,1-5.9,1.9,9.45,9.45,0,0,1-5.9-1.9,16.6,16.6,0,0,0-10-3.1,16.6,16.6,0,0,0-10,3.1,8.88,8.88,0,0,1-5.9,1.9,9.45,9.45,0,0,1-5.9-1.9A16.5,16.5,0,0,0,34,77.3a16,16,0,0,0-9.9,3.1,8.88,8.88,0,0,1-5.9,1.9,9.45,9.45,0,0,1-5.9-1.9,16.5,16.5,0,0,0-9.9-3.1v7.6a9.45,9.45,0,0,1,5.9,1.9,16.5,16.5,0,0,0,9.9,3.1,16.25,16.25,0,0,0,9.9-3.1A8.88,8.88,0,0,1,34,84.9a9.45,9.45,0,0,1,5.9,1.9,16.5,16.5,0,0,0,9.9,3.1,16.6,16.6,0,0,0,10-3.1,8.88,8.88,0,0,1,5.9-1.9,9.45,9.45,0,0,1,5.9,1.9,17.68,17.68,0,0,0,20,0,8.88,8.88,0,0,1,5.9-1.9V77.3A16.6,16.6,0,0,0,87.5,80.4Z" transform="translate(-2.4 -10.12)"/></g></svg>