<svg id="Layer_1" data-name="Layer 1" xmlns="http://www.w3.org/2000/svg" viewBox="0 0 292 233.16"><defs><style>.cls-1,.cls-2{fill:#fcfcfc;}.cls-1{fill-rule:evenodd;}</style></defs><polygon class="cls-1" points="0 161.16 88 161.16 88 233.16 0 233.16 0 161.16"/><path class="cls-1" d="M56,19A17.93,17.93,0,0,1,74,37c0,10-8,19-18,19S37,47,37,37,46,19,56,19Z" transform="translate(0 0.16)"/><path class="cls-2" d="M116,98H80v27h25a13.24,13.24,0,0,1,13,13h0v1h0v50a10,10,0,0,1-10,10h0c-6,0-10-4-10-10V151H60c-16,0-29-6-29-25V85c0-29,40-34,48-7h34C131,78,129,98,116,98Z" transform="translate(0 0.16)"/><path class="cls-2" d="M246,6V168c0,4-7,4-7,0V10c-30,8-55,18-75,32a132.45,132.45,0,0,0-37,33,16.89,16.89,0,0,0-10-3c11-15,25-27,42-38,22-14,49-26,81-34C244-1,246,3,246,6Z" transform="translate(0 0.16)"/><path class="cls-2" d="M180,175v1h0a38.67,38.67,0,0,0,4,17c6,10,16,10,22,0a38.67,38.67,0,0,0,4-17h0v-1c0-8,7-8,7,0v1h0c0,7,2,13,5,17,6,10,15,10,21,0,3-4,4-10,4-17h0v-1c0-8,8-8,8,0v1h0c0,7,1,13,4,17,6,10,15,10,21,0,3-4,5-11,5-18,0-8,7-8,7,0a53.8,53.8,0,0,1-7,27c-8,15-22,15-31,0l-3-6-3,6c-9,15-23,15-31,0l-3-6-3,6c-9,15-23,15-32,0l-3-6-3,6c-8,15-22,15-31,0a53.8,53.8,0,0,1-7-27c0-8,8-8,8,0,0,7,1,14,4,18,6,10,15,10,21,0,3-4,5-10,5-17h0C173,167,180,167,180,175Z" transform="translate(0 0.16)"/></svg>