<svg id="Layer_1" data-name="Layer 1" xmlns="http://www.w3.org/2000/svg" viewBox="0 0 97.99 78.01"><defs><style>.cls-1{fill:#fff;}</style></defs><path class="cls-1" d="M29.62,41.45A2.88,2.88,0,0,1,26,43.32l-4.56-1.45a2.88,2.88,0,0,1-1.87-3.61L24,24.52a2.88,2.88,0,0,1,3.61-1.87l4.56,1.45A2.88,2.88,0,0,1,34,27.71Z" transform="translate(-0.94 -11.28)"/><path class="cls-1" d="M50.22,22.49a6.11,6.11,0,1,0-8.42-1.8,6.09,6.09,0,0,0,8.42,1.8" transform="translate(-0.94 -11.28)"/><path class="cls-1" d="M58.94,68.61a3.84,3.84,0,0,0,.54-1.89l.06-15.92c0-.08,0-.16,0-.23s0-.13,0-.2l0-.09a4,4,0,0,0-3.56-3.5l-1.23-.12,2-5.3a3.26,3.26,0,0,0-.23-6.52h-7.7c1.09-3.58,1.3-8-2.91-9.82-3.8-1.67-8.5.42-10.73,7.51L21,76.6A4,4,0,0,0,23,81.41L.94,89.29h98V54.35Zm-5,1.79-9.54,3.4,7.07-18.61h0l0,11.45A4,4,0,0,0,53.93,70.4Zm-8-29h8.46l-1.92,5.06L44,45.59ZM28.44,79.45l10.61-23,10.06-1-7.33,19.3L28.41,79.5Z" transform="translate(-0.94 -11.28)"/></svg>