<svg id="type" xmlns="http://www.w3.org/2000/svg" xmlns:xlink="http://www.w3.org/1999/xlink" viewBox="0 0 1019.9 2025.45"><defs><style>.cls-1{fill:url(#linear-gradient);}.cls-2{fill:#010101;}.cls-3{fill:url(#linear-gradient-2);}.cls-4{fill:url(#linear-gradient-3);}</style><linearGradient id="linear-gradient" y1="1023.09" x2="1005.11" y2="1023.09" gradientUnits="userSpaceOnUse"><stop offset="0" stop-color="#353635"/><stop offset="0.06" stop-color="#313231"/><stop offset="0.12" stop-color="#262626"/><stop offset="0.13" stop-color="#232323"/><stop offset="0.58" stop-color="#303030"/><stop offset="0.69" stop-color="#292929"/><stop offset="0.85" stop-color="#171717"/><stop offset="0.99" stop-color="#010101"/></linearGradient><linearGradient id="linear-gradient-2" x1="749.98" y1="1904.89" x2="1008.6" y2="1904.89" gradientUnits="userSpaceOnUse"><stop offset="0.12" stop-color="#333"/><stop offset="0.32" stop-color="#292929"/><stop offset="0.66" stop-color="#0f0f0f"/><stop offset="0.81" stop-color="#010101"/></linearGradient><linearGradient id="linear-gradient-3" x1="61.81" y1="318.63" x2="246.36" y2="318.63" gradientUnits="userSpaceOnUse"><stop offset="0.2" stop-color="#333"/><stop offset="0.52" stop-color="#333"/><stop offset="0.96" stop-color="#333"/></linearGradient></defs><path class="cls-1" d="M766.12,1783.86c-57.81-27.25-122-38.75-180.42-64.7-103.44-46-184.71-138.62-216.35-246.69C353,1416.68,349.47,1358.12,345,1300.19c-27.7-359.35-94.18-714.5-160.55-1068.82C173,170.24,159.5,105.11,115.1,61.28,111.06,57.29,5,24.19,0,20.73V1994.14a197.49,197.49,0,0,0,10.4,31.31h994.71C942.61,1927.05,870.46,1833.05,766.12,1783.86Z"/><path class="cls-2" d="M432.18,2025.4c66.05-1.57,272.68,4.72,283.07,0,14.24-6.47-145.86-34.93-184.74-67.39-84.4-70.44-244.11-185.74-250.15-192.74-27.17-31.54-25.88-43.73-64.35-63.31,14.18-54.51-17.82-96.2-39.4-147.24-8.55-20.22-19.94-39.94-21-62.49-1.39-31.08,17.3-58.89,19.46-89.9,2.52-36-17.23-68.39-25.23-103.27-11.83-51.54,2.41-106.65-4-159.5-5.41-44.43-25.36-87.68-18.5-131.83,4.09-26.33,17.51-49.94,20.11-76.54,4.17-42.63-19.95-82.2-23.06-125-3.86-52.9,24.37-108.41,6.22-157-9.37-25.11-30-43.6-35.81-70.17-7.69-35.21,13.26-71.6,8.86-107.58C99.32,435.79,71,408.18,69.32,372.21,67.91,342,86,313,81.35,283.24c-2.92-18.85-14.43-34.15-20.6-51.89-8.72-25-6.33-53.21-7.42-80.26-1.43-35.49-9-103.92-39-124C8.79,23.4,4.06,21.39,0,20.73V2025.4Z"/><path class="cls-3" d="M802.25,1845.54c5.06,6.62,10.21,13.4,13.17,21.54,2.05,5.62,3,11.75,5.37,17.19,3.06,7,8.24,12.34,13.31,17.52l36.32,37.12c4.05,4.14,8.19,8.35,13.16,10.83,5.39,2.7,11.42,3.19,16.91,5.57,8.09,3.51,14.5,10.85,19.85,18.69,5.07,7.42,9.54,15.61,16.07,21.32,5.9,5.18,13.23,8.08,18.55,14,3,3.37,5.22,7.57,8,11.17,10.6,13.61,30,16.61,43.31,6.71,1.11-.82,2.29-2,2.3-3.47a5.25,5.25,0,0,0-1.23-3q-25.57-37-52.6-72.57c-19.33-25.45-39.36-50.54-63-70.49-8.59-7.24-17.64-13.78-25.84-21.6-5-4.82-9.75-10.1-14.72-15,0-4.58-19-16.38-22.32-18.76-8.34-6-16.57-13.48-25.46-18.28-17.67-9.54-34.85-20.52-53.41-27.38C771,1794.56,785,1822.93,802.25,1845.54Z"/><path class="cls-4" d="M87.71,137.81c1.88,12,2.2,24.24,4.86,36,3.23,14.3,9.77,27.39,14.24,41.27,3.89,12.06,6.19,24.66,9.35,37,7.78,30.35,20.72,58.81,35.07,86.09,5.77,10.95,11.83,21.88,15.23,34,4.75,16.92,4,35,6,52.6a164.07,164.07,0,0,0,23.41,67.92C208.23,512.5,225.12,529.84,231,553c2.85,11.15,7,29.57,15.32,29.57-7.86-48.85-18.72-101.94-27.28-151-2.84-16.26-5.42-33.13-8.84-49.21s-5.74-31-9.19-46.78c-11.05-50.44-17.42-102.14-27.54-152.9-6.61-33.12-13.58-67.2-31.13-95-8-12.72-18.75-24.25-32.29-28.34-8.56-2.59-17.62-2-26.42-3.3-4.84-.7-9.78-1.95-14.54-.71-16.82,4.38.06,25.69,4,35C79.51,105.49,85.11,121.21,87.71,137.81Z"/></svg>