<svg xmlns="http://www.w3.org/2000/svg" viewBox="0 0 70.76 81.61"><defs><style>.cls-1{fill:#fff;}</style></defs><g id="Layer_1" data-name="Layer 1"><path class="cls-1" d="M80.92,53.35a1,1,0,0,0-1.24-.54L50.32,67.14s-7.79-9.59-8.69-11.24c-1.15-2.11-.45-3.47,1.7-4.64A92.14,92.14,0,0,1,52,47.19C62.79,42.78,55.38,31.44,53.25,29L69,20.89a2.64,2.64,0,0,0,3.19.65c.21-.1-1.24-.48-1.86-1.12l2.74-2.32-3.49.77c-.1-.86.46-2.19.25-2.09a2.65,2.65,0,0,0-1.43,2.83l-16.1,8.27c-3.56-3.9-9.11-8.61-15.76-9.57-3-.45-7.73.75-8.37,5.19s1,13,1,13-8,4-10.22,5c-3,1.46-.67,7.52,2.4,6.12,8.4-3.85,12.22-5.93,13.81-7.65A4,4,0,0,0,36,37.79l2.72-1.39a31,31,0,0,1,3.61,4.17c-3.15,1.61-5.8,3-6.65,3.47C26.88,48.79,31.86,57,31.86,57l9.86,13.94L17.36,83.05s-3.65,2-5.32-.37a1,1,0,0,0-1.29-.4,1,1,0,0,0-.4,1.3c2.48,4.36,7,1.56,7.57,1.3a.3.3,0,0,0,.09,0L80.39,54.59A1,1,0,0,0,80.92,53.35ZM36.15,36.16c0-.75,0-1.45,0-1.95.42.3.92.7,1.48,1.18Z" transform="translate(-10.23 -4.39)"/><path class="cls-1" d="M15.17,17.27a6.77,6.77,0,0,0,13.35,2.08,1.22,1.22,0,0,0,1-1l.33-2.05A1.23,1.23,0,0,0,29.24,15c.54-3.6-1-6.93-3.6-8.35,0-.08.19-2-1.49-2.27S22,6,22,6c-3,.45-5.56,3.14-6.22,6.77a1.22,1.22,0,0,0-1.28,1l-.34,2.06A1.23,1.23,0,0,0,15.17,17.27Z" transform="translate(-10.23 -4.39)"/></g></svg>