<svg xmlns="http://www.w3.org/2000/svg" viewBox="0 0 1108.57 460.85"><defs><style>.cls-1{fill:#e8e8e8;}.cls-10,.cls-11,.cls-12,.cls-13,.cls-14,.cls-15,.cls-16,.cls-17,.cls-18,.cls-19,.cls-2,.cls-20,.cls-21,.cls-22,.cls-23,.cls-24,.cls-25,.cls-26,.cls-27,.cls-28,.cls-29,.cls-3,.cls-30,.cls-31,.cls-32,.cls-33,.cls-34,.cls-35,.cls-36,.cls-37,.cls-38,.cls-39,.cls-4,.cls-40,.cls-41,.cls-42,.cls-43,.cls-44,.cls-45,.cls-46,.cls-47,.cls-48,.cls-49,.cls-5,.cls-50,.cls-51,.cls-52,.cls-53,.cls-54,.cls-55,.cls-56,.cls-57,.cls-58,.cls-59,.cls-6,.cls-60,.cls-61,.cls-62,.cls-7,.cls-8,.cls-9{fill:none;stroke:#e8e8e8;stroke-miterlimit:10;}.cls-2{stroke-width:0.93px;}.cls-3{stroke-width:0.95px;}.cls-4{stroke-width:1.2px;}.cls-5{stroke-width:0.84px;}.cls-6{stroke-width:0.57px;}.cls-7{stroke-width:0.86px;}.cls-8{stroke-width:0.66px;}.cls-9{stroke-width:0.8px;}.cls-10{stroke-width:0.76px;}.cls-11{stroke-width:1.18px;}.cls-12{stroke-width:1.02px;}.cls-13{stroke-width:0.55px;}.cls-14{stroke-width:0.82px;}.cls-15{stroke-width:1.08px;}.cls-16{stroke-width:0.57px;}.cls-17{stroke-width:0.67px;}.cls-18{stroke-width:1.17px;}.cls-19{stroke-width:0.72px;}.cls-20{stroke-width:1.1px;}.cls-21{stroke-width:1.02px;}.cls-22{stroke-width:0.53px;}.cls-23{stroke-width:0.53px;}.cls-24{stroke-width:0.61px;}.cls-25{stroke-width:0.89px;}.cls-26{stroke-width:0.9px;}.cls-27{stroke-width:0.65px;}.cls-28{stroke-width:1.22px;}.cls-29{stroke-width:0.7px;}.cls-30{stroke-width:0.7px;}.cls-31{stroke-width:1.22px;}.cls-32{stroke-width:0.67px;}.cls-33{stroke-width:1.17px;}.cls-34{stroke-width:1.21px;}.cls-35{stroke-width:1.09px;}.cls-36{stroke-width:0.8px;}.cls-37{stroke-width:1.01px;}.cls-38{stroke-width:1.14px;}.cls-39{stroke-width:1.06px;}.cls-40{stroke-width:0.61px;}.cls-41{stroke-width:1px;}.cls-42{stroke-width:1.21px;}.cls-43{stroke-width:1.16px;}.cls-44{stroke-width:1.11px;}.cls-45{stroke-width:0.71px;}.cls-46{stroke-width:0.94px;}.cls-47{stroke-width:1.01px;}.cls-48{stroke-width:0.59px;}.cls-49{stroke-width:0.53px;}.cls-50{stroke-width:0.93px;}.cls-51{stroke-width:1.13px;}.cls-52{stroke-width:0.57px;}.cls-53{stroke-width:0.54px;}.cls-54{stroke-width:1.13px;}.cls-55{stroke-width:1.17px;}.cls-56{stroke-width:0.87px;}.cls-57{stroke-width:1.02px;}.cls-58{stroke-width:1.21px;}.cls-59{stroke-width:1.01px;}.cls-60{stroke-width:1.05px;}.cls-61{stroke-width:0.66px;}.cls-62{stroke-width:0.77px;}</style></defs><g id="stars"><rect y="-9.61" width="1108.57" height="470.46"/><circle class="cls-1" cx="982.11" cy="240.7" r="0.76"/><circle class="cls-2" cx="982.11" cy="240.7" r="0.76"/><circle class="cls-1" cx="950.25" cy="296.8" r="0.76"/><circle class="cls-3" cx="950.25" cy="296.8" r="0.76"/><circle class="cls-1" cx="972.39" cy="107.48" r="0.97"/><circle class="cls-4" cx="972.39" cy="107.48" r="0.97"/><circle class="cls-1" cx="940.58" cy="190.1" r="0.68"/><circle class="cls-5" cx="940.58" cy="190.1" r="0.68"/><circle class="cls-1" cx="889.56" cy="342.97" r="0.46"/><circle class="cls-6" cx="889.56" cy="342.97" r="0.46"/><circle class="cls-1" cx="926.78" cy="82.2" r="0.7"/><circle class="cls-7" cx="926.78" cy="82.2" r="0.7"/><circle class="cls-1" cx="902.65" cy="145.12" r="0.54"/><circle class="cls-8" cx="902.65" cy="145.12" r="0.54"/><circle class="cls-1" cx="869.88" cy="255.59" r="0.65"/><circle class="cls-9" cx="869.88" cy="255.59" r="0.65"/><circle class="cls-1" cx="842.79" cy="354.18" r="0.61"/><circle class="cls-10" cx="842.79" cy="354.18" r="0.61"/><circle class="cls-1" cx="843.32" cy="220.93" r="0.96"/><circle class="cls-11" cx="843.32" cy="220.93" r="0.96"/><circle class="cls-1" cx="833.66" cy="165.53" r="0.83"/><circle class="cls-12" cx="833.66" cy="165.53" r="0.83"/><circle class="cls-1" cx="808.73" cy="284.63" r="0.44"/><circle class="cls-13" cx="808.73" cy="284.63" r="0.44"/><circle class="cls-1" cx="793.27" cy="312.29" r="0.66"/><circle class="cls-14" cx="793.27" cy="312.29" r="0.66"/><circle class="cls-1" cx="772.6" cy="322.42" r="0.88"/><circle class="cls-15" cx="772.6" cy="322.42" r="0.88"/><circle class="cls-1" cx="786.26" cy="85.66" r="0.46"/><circle class="cls-16" cx="786.26" cy="85.66" r="0.46"/><circle class="cls-1" cx="755.33" cy="195.98" r="0.54"/><circle class="cls-17" cx="755.33" cy="195.98" r="0.54"/><circle class="cls-1" cx="746.9" cy="230.47" r="0.95"/><circle class="cls-18" cx="746.9" cy="230.47" r="0.95"/><circle class="cls-1" cx="738.67" cy="232.98" r="0.58"/><circle class="cls-19" cx="738.67" cy="232.98" r="0.58"/><circle class="cls-1" cx="720.61" cy="159.71" r="0.89"/><circle class="cls-20" cx="720.61" cy="159.71" r="0.89"/><circle class="cls-1" cx="710.51" cy="144.33" r="0.83"/><circle class="cls-21" cx="710.51" cy="144.33" r="0.83"/><circle class="cls-1" cx="686.51" cy="121.09" r="0.43"/><circle class="cls-22" cx="686.51" cy="121.09" r="0.43"/><circle class="cls-1" cx="667.71" cy="276.69" r="0.43"/><circle class="cls-23" cx="667.71" cy="276.69" r="0.43"/><circle class="cls-1" cx="642.4" cy="293.7" r="0.49"/><circle class="cls-24" cx="642.4" cy="293.7" r="0.49"/><circle class="cls-1" cx="641.14" cy="58.23" r="0.72"/><circle class="cls-25" cx="641.14" cy="58.23" r="0.72"/><circle class="cls-1" cx="629.3" cy="306.87" r="0.73"/><circle class="cls-26" cx="629.3" cy="306.87" r="0.73"/><circle class="cls-1" cx="611.62" cy="230.38" r="0.53"/><circle class="cls-27" cx="611.62" cy="230.38" r="0.53"/><circle class="cls-1" cx="591.51" cy="234.97" r="0.99"/><circle class="cls-28" cx="591.51" cy="234.97" r="0.99"/><circle class="cls-1" cx="563.43" cy="135.06" r="0.57"/><circle class="cls-29" cx="563.43" cy="135.06" r="0.57"/><circle class="cls-1" cx="550.08" cy="240.01" r="0.57"/><circle class="cls-30" cx="550.08" cy="240.01" r="0.57"/><circle class="cls-1" cx="532.14" cy="304.85" r="0.98"/><circle class="cls-31" cx="532.14" cy="304.85" r="0.98"/><circle class="cls-1" cx="505.27" cy="152.89" r="0.54"/><circle class="cls-32" cx="505.27" cy="152.89" r="0.54"/><circle class="cls-1" cx="494.71" cy="200.7" r="0.94"/><circle class="cls-33" cx="494.71" cy="200.7" r="0.94"/><circle class="cls-1" cx="475.06" cy="238.84" r="0.98"/><circle class="cls-34" cx="475.06" cy="238.84" r="0.98"/><circle class="cls-1" cx="460.47" cy="116.12" r="0.88"/><circle class="cls-35" cx="460.47" cy="116.12" r="0.88"/><circle class="cls-1" cx="443.43" cy="106.44" r="0.65"/><circle class="cls-36" cx="443.43" cy="106.44" r="0.65"/><circle class="cls-1" cx="444.69" cy="155.6" r="0.82"/><circle class="cls-37" cx="444.69" cy="155.6" r="0.82"/><circle class="cls-1" cx="436.53" cy="227.86" r="0.92"/><circle class="cls-38" cx="436.53" cy="227.86" r="0.92"/><circle class="cls-1" cx="432.05" cy="259.11" r="0.85"/><circle class="cls-39" cx="432.05" cy="259.11" r="0.85"/><circle class="cls-1" cx="397.63" cy="167.39" r="0.49"/><circle class="cls-40" cx="397.63" cy="167.39" r="0.49"/><circle class="cls-1" cx="395.28" cy="341.11" r="0.81"/><circle class="cls-41" cx="395.28" cy="341.11" r="0.81"/><circle class="cls-1" cx="355.23" cy="198.83" r="0.98"/><circle class="cls-42" cx="355.23" cy="198.83" r="0.98"/><circle class="cls-1" cx="346.61" cy="260.08" r="0.94"/><circle class="cls-43" cx="346.61" cy="260.08" r="0.94"/><circle class="cls-1" cx="348.95" cy="357.22" r="0.9"/><circle class="cls-44" cx="348.95" cy="357.22" r="0.9"/><circle class="cls-1" cx="311.11" cy="240.28" r="0.57"/><circle class="cls-45" cx="311.11" cy="240.28" r="0.57"/><circle class="cls-1" cx="306.72" cy="259.68" r="0.76"/><circle class="cls-46" cx="306.72" cy="259.68" r="0.76"/><circle class="cls-1" cx="290.41" cy="297.99" r="0.82"/><circle class="cls-47" cx="290.41" cy="297.99" r="0.82"/><circle class="cls-1" cx="296.38" cy="364.18" r="0.48"/><circle class="cls-48" cx="296.38" cy="364.18" r="0.48"/><circle class="cls-1" cx="221.19" cy="101.21" r="0.43"/><circle class="cls-49" cx="221.19" cy="101.21" r="0.43"/><circle class="cls-1" cx="208.28" cy="108.68" r="0.75"/><circle class="cls-50" cx="208.28" cy="108.68" r="0.75"/><circle class="cls-1" cx="239.29" cy="304.53" r="0.92"/><circle class="cls-51" cx="239.29" cy="304.53" r="0.92"/><circle class="cls-1" cx="241" cy="397.08" r="0.46"/><circle class="cls-52" cx="241" cy="397.08" r="0.46"/><circle class="cls-1" cx="214.38" cy="348.23" r="0.44"/><circle class="cls-53" cx="214.38" cy="348.23" r="0.44"/><circle class="cls-1" cx="161.79" cy="168.37" r="0.91"/><circle class="cls-54" cx="161.79" cy="168.37" r="0.91"/><circle class="cls-1" cx="151.54" cy="182.09" r="0.94"/><circle class="cls-55" cx="151.54" cy="182.09" r="0.94"/><circle class="cls-1" cx="186.55" cy="396.63" r="0.71"/><circle class="cls-56" cx="186.55" cy="396.63" r="0.71"/><circle class="cls-1" cx="139.48" cy="262.49" r="0.83"/><circle class="cls-57" cx="139.48" cy="262.49" r="0.83"/><circle class="cls-1" cx="171.79" cy="413.52" r="0.98"/><circle class="cls-58" cx="171.79" cy="413.52" r="0.98"/><circle class="cls-1" cx="131.31" cy="339.8" r="0.82"/><circle class="cls-59" cx="131.31" cy="339.8" r="0.82"/><circle class="cls-1" cx="81.28" cy="198.1" r="0.85"/><circle class="cls-60" cx="81.28" cy="198.1" r="0.85"/><circle class="cls-1" cx="73.22" cy="227.22" r="0.53"/><circle class="cls-61" cx="73.22" cy="227.22" r="0.53"/><circle class="cls-1" cx="42.75" cy="201.44" r="0.62"/><circle class="cls-62" cx="42.75" cy="201.44" r="0.62"/></g></svg>